# xmcd CD database file
#
# Track frame offsets:
#	150
#	25727
#	28122
#	54585
#	56885
#	78297
#	80940
#	94107
#	121055
#	172732
#	183409
#	211092
#	225055
#
# Disc length: 3129 seconds
#
# Revision: 0
# Processed by: cddbd v1.5.1PL2 Copyright (c) Steve Scherf et al.
# Submitted via: CDex 1.51
#
DISCID=980c370d
DTITLE=Mariani - Perpetuum Mobile
DYEAR=1970
DGENRE=Rock
TTITLE0=Searching For A New Dimension
TTITLE1=Interlude
TTITLE2=Re-Birth Day
TTITLE3=Interlude II
TTITLE4=Things Are Changing
TTITLE5=Interlude III
TTITLE6=Lord, I Just Can't Help Myself
TTITLE7=The Unknown Path
TTITLE8=Euphoria
TTITLE9=Message
TTITLE10=Windy Planet
TTITLE11=Re-Birth Day(45" Version)
TTITLE12=Memories
EXTD=YEAR: 1970
EXTT0=
EXTT1=
EXTT2=
EXTT3=
EXTT4=
EXTT5=
EXTT6=
EXTT7=
EXTT8=
EXTT9=
EXTT10=
EXTT11=
EXTT12=
PLAYORDER=
